#!OML:ASF F:\VICON\USERDATA\INSTALL\rory3\rory3.ASF
:FULLY-SPECIFIED
:DEGREES
80
root 0.2977228238935151 17.423008306844828 47.61417882986347 1.5317504448369545 1.8828257629184708 2.064544413088861
lfemur 5.342088991311023 -4.247563644207345 -27.19702334855784
ltibia 24.19441411416294
lfoot 0.7330102845498976 -4.626316151847769
ltoes -7.503440847921101
rfemur -36.98036661815668 1.5712469736869865 19.549621527497226
rtibia 45.337031964450226
rfoot 4.155940732057317 -13.517980621507094
rtoes -1.1622985621265567
lowerback 12.587969042854255 -0.6572085166431367 -2.933446233107558
upperback 0.4021991614928612 -1.1991094805789992 0.8473019629010401
thorax -7.03919322938118 -0.4464257718552036 3.4308490071293534
lowerneck -18.22994155266431 -2.9251905351057705 -3.7177480040117654
upperneck 17.805495830632506 -3.562415011169129 2.773279502116512
head 8.62518639223185 -1.5717027414555274 1.1011584908326868
lclavicle -2.263088794979179e-15 6.837354321368213e-16
lhumerus -29.434209122224672 -11.865947547975505 90.02320759410279
lradius 69.02871660179646
lwrist 20.802256925288468
lhand -27.261511542712487 13.551278501702273
lfingers 7.125019999999999
lthumb -0.7306880601075703 43.36466389874899
rclavicle -2.2623260727928963e-15 6.842936444512265e-16
rhumerus -43.41987602447112 -6.161649185696549 -87.0969556561623
rradius 62.07196163348648
rwrist -1.6242398940288036
rhand -16.8027744816668 31.330221984689338
rfingers 7.125019999999999
rthumb 8.838598481341894 1.370326361313717
81
root 0.22366374464589894 17.394869868966634 48.404275823126994 2.4206694826107937 2.900328314531312 2.3806021617094006
lfemur 9.777404609782831 -4.681811035415456 -27.32905114789035
ltibia 19.942598438994235
lfoot 2.4686052050916047 -7.294504221179677
ltoes -8.779430541462498
rfemur -36.30601705752629 5.221093209139072 17.77162829640502
rtibia 32.76860139854277
rfoot 1.6107598510335959 -17.26441709464457
rtoes -4.5101250403806
lowerback 11.521996437643502 -1.0883931858915485 -3.5586596988767587
upperback 0.08674669068633784 -1.8526031967578458 0.958373774879003
thorax -6.712765448651661 -0.7514127581678738 4.093031943690935
lowerneck -18.56105870016763 -2.88265371660304 -3.7618422641560674
upperneck 17.77502725083962 -3.488758425216 2.754913055192421
head 8.665482431519955 -1.538263231215664 1.0803557978505132
lclavicle -2.2643394368582334e-15 6.82854480628393e-16
lhumerus -27.392493634316423 -12.079199475355068 89.67152063470584
lradius 71.4212586336112
lwrist 21.716687197951785
lhand -27.187791020499393 13.31997096006703
lfingers 7.125019999999999
lthumb -0.857106177789472 42.915402666061496
rclavicle -2.2623923334289492e-15 6.842471302267784e-16
rhumerus -43.71594116013485 -7.251559878712723 -86.22513766865606
rradius 61.229100449037084
rwrist -0.6135158652949251
rhand -16.817858582374967 31.520498238835458
rfingers 7.125019999999999
rthumb 8.80871811510853 1.617953412052488
82
root 0.12918587555861225 17.280226116910438 49.16832114267786 2.9111415060809107 3.849451482900146 2.5047308573722913
lfemur 12.469254264476628 -5.765006764004714 -26.998327845955878
ltibia 19.63747977978848
lfoot 3.6390018362934584 -10.03184021537056
ltoes -9.048578288197495
rfemur -36.08069411004433 5.119411222159033 18.044731624820788
rtibia 27.105145220697683
rfoot -1.4559601743805866 -16.75721276743429
rtoes -7.974747749839379
lowerback 11.069945479573729 -1.4697350713788837 -3.8847306894355205
upperback -0.17059548055202847 -2.3921446863087907 1.136343099150107
thorax -6.597655418891216 -1.0082757539362888 4.616367461163744
lowerneck -18.786661854088617 -2.845751600603986 -3.7693271098602037
upperneck 17.777355986041833 -3.4151527747682198 2.710579345045348
head 8.694857376661263 -1.5060129556287707 1.0585180153263036
lclavicle -2.26370661870162e-15 6.83298544681335e-16
lhumerus -26.180304686629228 -12.200131755599294 89.64456730631453
lradius 73.5116513597832
lwrist 22.38330212860017
lhand -27.15744572740109 12.720119579127417
lfingers 7.125019999999999
lthumb -0.8695221730995311 42.23875046020261
rclavicle -2.262618783338867e-15 6.840883427925208e-16
rhumerus -43.99476450763686 -8.234665918145518 -85.52307681041779
rradius 60.52234641273887
rwrist 0.10553387420487637
rhand -16.996947381897577 31.562160052873804
rfingers 7.125019999999999
rthumb 8.648395349443819 1.6374781372968834
83
root 0.039589646952996695 17.089783158625142 49.5486703335508 2.4574615987731563 4.13684915430246 1.952186151455297
lfemur 13.338877668999839 -6.542463965390554 -26.050305043248056
ltibia 24.471538509094664
lfoot 4.834557793160597 -12.540004622485181
ltoes -9.198364590368096
rfemur -36.32278605097382 2.9018952660248636 20.357567098176656
rtibia 29.848206558899136
rfoot -1.3487296554503332 -12.447289977322999
rtoes -7.732350567966753
lowerback 11.312918948301627 -1.6530724401267793 -3.368518079395354
upperback -0.059719760931292665 -2.5442090656166405 1.5313977370222998
thorax -6.608577668326776 -1.0872303438811686 4.715328251027065
lowerneck -18.936640963899475 -2.788580823525862 -3.7719075648074263
upperneck 17.801260784449294 -3.316620785991153 2.590365421304398
head 8.73132340236797 -1.4701643613461395 1.0228494832603563
lclavicle -2.264069386399561e-15 6.830462381377766e-16
lhumerus -26.020589927019408 -11.951308606855346 89.8044821172854
lradius 74.98178906473308
lwrist 22.519518730167693
lhand -27.561263717553405 12.095960600439186
lfingers 7.125019999999999
lthumb -1.2115416620925092 41.63012146805366
rclavicle -2.2616448134166778e-15 6.847712401399128e-16
rhumerus -44.048705109463604 -9.077876028601324 -84.88851321785295
rradius 59.808268487526234
rwrist 0.9024358105235981
rhand -17.274567321779568 31.5249540012209
rfingers 7.125019999999999
rthumb 8.481469808820027 1.5773079981521896
